<svg xmlns="http://www.w3.org/2000/svg" viewBox="0 0 305.584 305.584"><defs/><path fill="#d9a460" d="M152.792 0C98.689 0 48.083 14.95 4.859 40.929L152.792 287.6 300.725 40.929C257.501 14.95 206.895 0 152.792 0z"/><path fill="#f2d383" d="M152.792 41.579c-46.281 0-89.571 12.789-126.546 35.012l81.574 136.022c-.003.111-.017.22-.017.332v81.447c0 6.182 5.011 11.192 11.192 11.192s11.192-5.011 11.192-11.192V249.91l22.604 37.69 51.181-85.342v34.182c0 6.181 5.011 11.191 11.192 11.191 6.182 0 11.192-5.011 11.192-11.191v-71.507l10.258-17.105v31.82c0 6.181 5.011 11.191 11.192 11.191 6.182 0 11.192-5.011 11.192-11.191v-69.146l20.337-33.911c-36.972-22.223-80.262-35.012-126.543-35.012z"/><path fill="#b3874f" d="M152.792 41.579c-46.281 0-89.571 12.789-126.546 35.012l6.183 10.31C67.598 65.764 108.772 53.6 152.792 53.6s85.194 12.164 120.363 33.3l6.183-10.31c-36.975-22.222-80.265-35.011-126.546-35.011z"/><path fill="#e94f3d" d="M188.979 160.65c-22.995 0-41.637 18.642-41.637 41.638 0 19.777 13.795 36.321 32.284 40.567l40.732-67.919c-7.633-8.75-18.856-14.286-31.379-14.286zM91.704 102.164c-15.968 0-29.83 8.993-36.815 22.188l36.631 61.079c.062.001.123.005.184.005 22.996 0 41.638-18.64 41.638-41.635 0-22.995-18.642-41.637-41.638-41.637z"/><circle cx="191.979" cy="104.166" r="41.637" fill="#e94f3d"/><path fill="#e94f3d" d="M128.552 42.768a244.388 244.388 0 00-79.885 21.887c6.041 15.541 21.135 26.562 38.811 26.562 22.996 0 41.638-18.641 41.638-41.635a41.91 41.91 0 00-.564-6.814z"/><path fill="#c24232" d="M128.552 42.768a244.381 244.381 0 00-79.885 21.887 41.632 41.632 0 005.959 10.489 232.429 232.429 0 0174.15-20.322 41.95 41.95 0 00.34-5.24 41.91 41.91 0 00-.564-6.814z"/><g fill="#b3874f"><circle cx="26.292" cy="42.049" r="4"/><circle cx="58.889" cy="50.049" r="4"/><circle cx="94.115" cy="22.8" r="4"/><circle cx="139.792" cy="30.8" r="4"/><circle cx="187.85" cy="14.8" r="4"/><circle cx="211.165" cy="38.049" r="4"/><circle cx="283.338" cy="45.579" r="4"/><circle cx="249.792" cy="37.579" r="4"/></g></svg>